<svg width="64" height="64" viewBox="0 0 64 64" fill="none" xmlns="http://www.w3.org/2000/svg">
<rect width="64" height="64" rx="32" fill="#3460DC"/>
<path d="M35.7036 19.4362C36.5539 17.3833 35.5791 15.0297 33.5261 14.1793C31.4732 13.3289 29.1196 14.3038 28.2692 16.3568C27.4188 18.4097 28.3937 20.7633 30.4467 21.6137C32.4996 22.464 34.8532 21.4892 35.7036 19.4362Z" fill="white"/>
<path d="M45.4522 19.2838C45.197 19.4242 44.9461 19.5603 44.6909 19.6964C44.5548 19.7687 44.4229 19.8367 44.2868 19.9048C44.1507 19.9728 44.0146 20.0452 43.8785 20.1089C43.7254 20.1855 43.5681 20.2578 43.4149 20.3301C43.3001 20.3854 43.181 20.4407 43.0662 20.496C42.9003 20.5725 42.7387 20.6448 42.5728 20.7171C42.4665 20.7639 42.3602 20.8107 42.2538 20.8575C42.0837 20.9298 41.9136 21.0021 41.7435 21.0702C41.6414 21.1127 41.5393 21.151 41.4415 21.1935C41.2671 21.2615 41.097 21.3296 40.9226 21.3934C40.8248 21.4317 40.727 21.4657 40.6292 21.504C40.4548 21.5678 40.2804 21.6273 40.106 21.6869C40.0082 21.7209 39.9104 21.7507 39.8168 21.7847C39.6424 21.84 39.468 21.8995 39.2937 21.9506C39.1958 21.9803 39.098 22.0101 39.0045 22.0356C38.8301 22.0867 38.6557 22.1377 38.4813 22.1845C38.3835 22.21 38.2899 22.2355 38.1921 22.261C38.0177 22.3078 37.8434 22.3503 37.669 22.3929C37.5712 22.4141 37.4733 22.4354 37.3798 22.4609C37.2054 22.4992 37.031 22.5375 36.8566 22.5758C36.7588 22.597 36.6652 22.614 36.5674 22.6311C36.393 22.6651 36.2187 22.6991 36.0443 22.7289C35.9507 22.7459 35.8529 22.7586 35.7593 22.7757C35.5807 22.8054 35.4063 22.8309 35.2277 22.8565C35.1384 22.8692 35.0491 22.8777 34.9555 22.8905C34.7726 22.9118 34.594 22.9373 34.4111 22.9543C34.3303 22.9628 34.2452 22.9671 34.1644 22.9756C33.9773 22.9926 33.7859 23.0096 33.5987 23.0223C33.5392 23.0223 33.4839 23.0266 33.4244 23.0308C32.4717 23.0904 31.5147 23.0904 30.562 23.0308C30.5025 23.0308 30.4472 23.0266 30.3876 23.0223C30.2005 23.0096 30.0091 22.9926 29.822 22.9756C29.7411 22.9671 29.6561 22.9628 29.5753 22.9543C29.3966 22.9373 29.2138 22.9118 29.0351 22.8905C28.9458 22.8777 28.8522 22.8692 28.7629 22.8565C28.5885 22.8309 28.4099 22.8054 28.2355 22.7757C28.142 22.7586 28.0441 22.7459 27.9506 22.7289C27.7762 22.6991 27.6018 22.6651 27.4274 22.6311C27.3296 22.614 27.2318 22.5928 27.134 22.5758C26.9596 22.5417 26.7852 22.5035 26.6108 22.4609C26.513 22.4397 26.4152 22.4184 26.3216 22.3929C26.1473 22.3503 25.9729 22.3078 25.7985 22.261C25.7007 22.2355 25.6029 22.21 25.5093 22.1845C25.3349 22.1377 25.1605 22.0867 24.9862 22.0356C24.8883 22.0058 24.7905 21.9803 24.6969 21.9506C24.5226 21.8953 24.3482 21.84 24.1738 21.7847C24.076 21.7507 23.9782 21.7209 23.8803 21.6869C23.706 21.6273 23.5316 21.5678 23.3572 21.504C23.2594 21.4699 23.1616 21.4317 23.0595 21.3934C22.8851 21.3296 22.715 21.2615 22.5406 21.1935C22.4385 21.1552 22.3407 21.1127 22.2386 21.0702C22.0685 21.0021 21.8984 20.9298 21.7283 20.8575C21.6219 20.8107 21.5156 20.7639 21.4093 20.7171C21.2434 20.6448 21.0818 20.5725 20.9159 20.496C20.8011 20.4407 20.682 20.3854 20.5672 20.3301C20.414 20.2578 20.2567 20.1813 20.1036 20.1047C19.9717 20.0366 19.8356 19.9686 19.6995 19.9005C19.5634 19.8325 19.4273 19.7602 19.2912 19.6921C19.036 19.5603 18.7851 19.4242 18.5299 19.2796C17.709 18.8203 16.6713 19.1137 16.2162 19.9346C15.7569 20.7554 16.0546 21.7932 16.8712 22.2483C17.1179 22.3844 17.3645 22.5162 17.6112 22.6481C17.6495 22.6693 17.6835 22.6863 17.7218 22.7076C17.8494 22.7757 17.977 22.8395 18.1046 22.9033C18.2832 22.9968 18.4661 23.0861 18.6447 23.1755C18.7723 23.2393 18.8999 23.2988 19.0275 23.3583C19.2061 23.4434 19.389 23.5285 19.5677 23.6135C19.6953 23.6731 19.8229 23.7284 19.9547 23.7837C20.1333 23.8645 20.312 23.941 20.4906 24.0176C20.6224 24.0729 20.75 24.1239 20.8819 24.1792C21.0605 24.2515 21.2349 24.3238 21.4135 24.3918C21.5454 24.4429 21.6815 24.4939 21.8133 24.545C21.9877 24.6088 22.1621 24.6726 22.3365 24.7364C22.4726 24.7831 22.6087 24.8299 22.7448 24.8767C22.9149 24.9362 23.085 24.9915 23.2551 25.0468C23.3955 25.0936 23.5358 25.1361 23.6762 25.1787C23.8421 25.2297 24.0079 25.2765 24.1738 25.3275C24.3184 25.3701 24.4588 25.4083 24.6034 25.4466C24.765 25.4892 24.9309 25.5317 25.0925 25.5742C25.2371 25.6125 25.3859 25.6465 25.5306 25.6848C25.6879 25.7231 25.8495 25.7571 26.0069 25.7911C26.1558 25.8252 26.3089 25.8592 26.4577 25.8889C26.6108 25.9187 26.7682 25.9485 26.9213 25.9783C26.9894 25.991 27.0617 26.0038 27.1297 26.0165L27.7422 32.4473V34.3952L22.7618 48.439C22.3577 49.5789 22.9532 50.8293 24.093 51.2333C24.3354 51.3184 24.5821 51.3609 24.8245 51.3609C25.7262 51.3609 26.5683 50.7995 26.8873 49.9021L31.3658 37.2618H32.6163L37.0948 49.9021C37.4138 50.7995 38.2559 51.3609 39.1576 51.3609C39.4 51.3609 39.6467 51.3184 39.8891 51.2333C41.0289 50.8293 41.6244 49.5789 41.2203 48.439L36.2442 34.3952V32.4473L36.8566 26.0165C36.9289 26.0038 36.997 25.991 37.0693 25.9783C37.2224 25.9485 37.3755 25.923 37.5286 25.8889C37.6817 25.8592 37.8348 25.8252 37.988 25.7911C38.1453 25.7571 38.3027 25.7231 38.4601 25.6848C38.6089 25.6508 38.7578 25.6125 38.9066 25.5742C39.0683 25.5317 39.2299 25.4934 39.3915 25.4466C39.5361 25.4083 39.6807 25.3658 39.8253 25.3233C39.9912 25.2765 40.1571 25.2255 40.3229 25.1787C40.4633 25.1361 40.6036 25.0894 40.7482 25.0468C40.9184 24.9915 41.0842 24.9362 41.2544 24.881C41.3905 24.8342 41.5308 24.7874 41.6669 24.7364C41.8413 24.6768 42.0114 24.613 42.1858 24.5492C42.3219 24.4982 42.4537 24.4471 42.5898 24.3961C42.7642 24.3281 42.9429 24.2557 43.1172 24.1834C43.2491 24.1282 43.3767 24.0771 43.5085 24.0218C43.6871 23.9453 43.8658 23.8687 44.0487 23.7879C44.1763 23.7326 44.3039 23.6731 44.4314 23.6178C44.6143 23.537 44.793 23.4477 44.9758 23.3626C45.1034 23.303 45.231 23.2435 45.3544 23.1797C45.5373 23.0904 45.7159 22.9968 45.8988 22.9033C46.0264 22.8395 46.154 22.7757 46.2773 22.7076C46.3156 22.6863 46.3496 22.6693 46.3879 22.6523C46.6346 22.5205 46.8812 22.3886 47.1279 22.2525C47.9488 21.7932 48.2422 20.7597 47.7829 19.9388C47.3236 19.118 46.2901 18.8245 45.4692 19.2838H45.4522Z" fill="white"/>
</svg>
