<svg width="64" height="64" viewBox="0 0 64 64" fill="none" xmlns="http://www.w3.org/2000/svg">
<rect width="64" height="64" rx="32" fill="#3460DC"/>
<rect width="64" height="64" rx="32" fill="#3460DC"/>
<path fill-rule="evenodd" clip-rule="evenodd" d="M39.5939 32.8063C37.614 33.6079 35.4769 34.1024 33.2416 34.2305C32.8561 34.2526 32.4677 34.2638 32.0767 34.2638C31.6857 34.2638 31.2973 34.2526 30.9118 34.2305C28.676 34.1023 26.5384 33.6077 24.5581 32.8058C20.4024 31.1228 16.9395 28.0863 14.7163 24.243C18.1816 18.2525 24.6585 14.2222 32.0767 14.2222C39.4949 14.2222 45.9718 18.2525 49.4371 24.243C47.2136 28.0867 43.7503 31.1234 39.5939 32.8063Z" fill="white"/>
<path d="M24.5578 34.3658C24.079 34.1719 23.6094 33.9601 23.1499 33.7311C21.6565 34.7831 20.394 36.0934 19.4434 37.5883C21.0592 40.1292 23.576 42.1367 26.5964 43.2494C28.0357 43.7796 29.5893 44.1066 31.2142 44.1913H32.9076C34.5322 44.1066 37.3876 45.7161 33.2413 49.7777C36.2621 48.6651 43.0624 40.1295 44.6785 37.5883C43.7305 36.0976 42.4725 34.7906 40.9847 33.7401C40.5305 33.9658 40.0665 34.1749 39.5935 34.3664C37.6136 35.168 35.4765 35.6624 33.2413 35.7905C32.8558 35.8126 32.4674 35.8238 32.0763 35.8238C31.6853 35.8238 31.2969 35.8126 30.9114 35.7905C28.6756 35.6624 26.538 35.1678 24.5578 34.3658Z" fill="white"/>
<rect x="23.7051" y="21.6796" width="16.779" height="5.99251" rx="2.99625" fill="#162550"/>
<ellipse cx="36.7217" cy="24.6426" rx="1.09863" ry="1.09863" fill="#04FED1"/>
<circle cx="32.061" cy="39.4241" r="1.09863" fill="#162550"/>
<ellipse cx="27.667" cy="24.6426" rx="1.09863" ry="1.09863" fill="#04FED1"/>
<ellipse cx="27.667" cy="39.4241" rx="1.09863" ry="1.09863" fill="#162550"/>
<circle cx="36.456" cy="39.4241" r="1.09863" fill="#162550"/>
</svg>
