<svg width="120" height="121" viewBox="0 0 120 121" fill="none" xmlns="http://www.w3.org/2000/svg">
<path d="M80 20.5H90C92.6522 20.5 95.1957 21.5536 97.0711 23.4289C98.9464 25.3043 100 27.8478 100 30.5V100.5C100 103.152 98.9464 105.696 97.0711 107.571C95.1957 109.446 92.6522 110.5 90 110.5H30C27.3478 110.5 24.8043 109.446 22.9289 107.571C21.0536 105.696 20 103.152 20 100.5V30.5C20 27.8478 21.0536 25.3043 22.9289 23.4289C24.8043 21.5536 27.3478 20.5 30 20.5H40" stroke="#F9F9F9" stroke-width="2" stroke-linecap="round" stroke-linejoin="round"/>
<path d="M75 10.5H45C42.2386 10.5 40 12.7386 40 15.5V25.5C40 28.2614 42.2386 30.5 45 30.5H75C77.7614 30.5 80 28.2614 80 25.5V15.5C80 12.7386 77.7614 10.5 75 10.5Z" stroke="#F9F9F9" stroke-width="2" stroke-linecap="round" stroke-linejoin="round"/>
</svg>
