<svg width="163" height="64" viewBox="0 0 163 64" fill="none" xmlns="http://www.w3.org/2000/svg">
<g id="logo" clip-path="url(#clip0_4654_4346)">
<g id="Clip path group">
<mask id="mask0_4654_4346" style="mask-type:luminance" maskUnits="userSpaceOnUse" x="0" y="-1" width="163" height="65">
<g id="clip0_3483_3032">
<path id="Vector" d="M162.025 -0.0012207H0V63.4425H162.025V-0.0012207Z" fill="white"/>
</g>
</mask>
<g mask="url(#mask0_4654_4346)">
<g id="Group">
<path id="Vector_2" d="M35.1628 4.77474C35.3623 4.92654 35.6263 4.94528 35.8414 4.84221L38.1764 6.63191L39.4202 20.1662C39.2129 20.2805 39.0799 20.5016 39.1033 20.7434C39.1346 21.077 39.4397 21.3225 39.7878 21.2925C40.1359 21.2625 40.3921 20.9701 40.3608 20.6366C40.3393 20.3929 40.1672 20.1981 39.9423 20.1212L39.6783 17.2483L48.0288 10.5411L51.0014 10.8579C51.0757 11.0753 51.2771 11.2439 51.5294 11.2702C51.8756 11.3076 52.1884 11.0677 52.2276 10.7361C52.2667 10.4043 52.0164 10.1045 51.6702 10.0671C51.4179 10.0408 51.1832 10.1607 51.06 10.3575L47.8645 10.0183L39.6216 16.6393L38.679 6.37329L36.1699 4.44866C36.2286 4.22565 36.1523 3.98203 35.9528 3.83022C35.681 3.62221 35.284 3.66344 35.065 3.92393C34.8479 4.18442 34.8909 4.56673 35.1628 4.77474Z" fill="white"/>
<path id="Vector_3" d="M32.8402 1.15294V15.7854L30.0417 13.5515L30.5266 8.2649C30.7516 8.18811 30.9217 7.99318 30.9452 7.74955C30.9765 7.41597 30.7183 7.12362 30.3722 7.09364C30.0241 7.06366 29.719 7.31103 29.6878 7.64274C29.6662 7.88636 29.7972 8.1075 30.0045 8.21994L29.4941 13.769L32.8402 16.4395V23.2291L33.3643 23.2309V18.1298L36.7103 15.4575L36.2 9.90841C36.4073 9.7941 36.5402 9.57302 36.5167 9.33127C36.4855 8.99766 36.1804 8.7522 35.8322 8.78217C35.4842 8.81215 35.228 9.10452 35.2593 9.43805C35.2808 9.68165 35.4509 9.87657 35.6778 9.95345L36.1628 15.2401L33.3623 17.4758V1.15294C33.5794 1.05736 33.7319 0.847475 33.7319 0.603849C33.7319 0.27027 33.4484 -0.00146484 33.1003 -0.00146484C32.7521 -0.00146484 32.4686 0.27027 32.4686 0.603849C32.4705 0.847475 32.6231 1.05736 32.8402 1.15294Z" fill="white"/>
<path id="Vector_4" d="M31.0434 58.6655C30.8439 58.5137 30.5799 58.4968 30.3647 58.598L28.0298 56.8083L26.786 43.274C26.9933 43.1597 27.1263 42.9386 27.1028 42.6968C27.0715 42.3632 26.7664 42.1178 26.4183 42.1477C26.0703 42.1777 25.814 42.4701 25.8454 42.8036C25.8668 43.0472 26.0389 43.2421 26.2638 43.319L26.5278 46.1919L18.1774 52.8991L15.2048 52.5823C15.1305 52.365 14.9291 52.1982 14.6768 52.1701C14.3306 52.1326 14.0177 52.3724 13.9786 52.7042C13.9395 53.0358 14.1898 53.3358 14.536 53.3732C14.7883 53.3994 15.0229 53.2795 15.1461 53.0827L18.3416 53.4219L26.5826 46.8028L27.5253 57.0688L30.0362 58.9934C29.9776 59.2165 30.0538 59.4601 30.2533 59.6119C30.5252 59.8199 30.9221 59.7787 31.1412 59.5182C31.3582 59.2558 31.3152 58.8735 31.0434 58.6655Z" fill="white"/>
<path id="Vector_5" d="M33.3653 62.2885V47.656L36.1658 49.8917L35.6808 55.1784C35.4559 55.2552 35.2857 55.4501 35.2623 55.6937C35.231 56.0274 35.4891 56.3196 35.8353 56.3496C36.1834 56.3797 36.4885 56.1323 36.5197 55.8006C36.5412 55.5569 36.4102 55.3358 36.2029 55.2234L36.7134 49.6743L33.3673 47.002V43.0084L33.3575 40.1187H32.8431V45.3116L29.4971 47.9839L30.0075 53.533C29.8002 53.6473 29.6672 53.8684 29.6907 54.1102C29.722 54.4438 30.0271 54.6893 30.3752 54.6593C30.7233 54.6293 30.9794 54.3369 30.9482 54.0033C30.9266 53.7597 30.7565 53.5648 30.5297 53.488L30.0446 48.2014L32.8451 45.9656V62.2885C32.628 62.3841 32.4755 62.5939 32.4755 62.8376C32.4755 63.1711 32.759 63.4429 33.1072 63.4429C33.4553 63.4429 33.7388 63.1711 33.7388 62.8376C33.7349 62.5939 33.5824 62.3841 33.3653 62.2885Z" fill="white"/>
<path id="Vector_6" d="M62.1087 33.5993C61.8369 33.3912 61.44 33.4325 61.2209 33.693C61.0625 33.8841 61.0429 34.1371 61.1505 34.3433L59.2829 36.5809L45.1594 37.7727C45.0401 37.5741 44.8093 37.4467 44.557 37.4692C44.2089 37.4991 43.9528 37.7915 43.984 38.1251C44.0154 38.4587 44.3204 38.7041 44.6685 38.6742C44.9228 38.6536 45.1261 38.4905 45.2063 38.2731L48.2043 38.0201L55.2035 46.0222L54.8729 48.8708C54.6461 48.942 54.4721 49.1351 54.4428 49.3768C54.4036 49.7085 54.654 50.0083 55.0001 50.0458C55.3462 50.0833 55.6592 49.8435 55.6982 49.5117C55.7256 49.27 55.6004 49.0451 55.3951 48.927L55.7491 45.8648L48.8419 37.9676L59.5547 37.0644L61.5631 34.66C61.7959 34.7162 62.0501 34.6431 62.2085 34.4519C62.4256 34.1896 62.3806 33.8073 62.1087 33.5993Z" fill="white"/>
<path id="Vector_7" d="M48.8397 25.4741L55.6766 17.6594L55.7489 17.5769L55.395 14.5147C55.6003 14.3967 55.7274 14.1737 55.6981 13.9301C55.659 13.5983 55.3481 13.3584 54.9999 13.396C54.6538 13.4334 54.4034 13.7314 54.4426 14.065C54.47 14.3067 54.646 14.4998 54.8728 14.571L55.2033 17.4195L46.096 27.8317C45.8652 27.7717 45.609 27.8373 45.4447 28.0247C45.2199 28.2814 45.2551 28.6618 45.523 28.8774C45.7909 29.0929 46.1879 29.0591 46.4128 28.8024C46.5771 28.615 46.6006 28.362 46.4989 28.1539L48.431 25.9445L59.2847 26.859L61.1523 29.0966C61.0448 29.3008 61.0624 29.5558 61.2227 29.7469C61.4398 30.0074 61.8387 30.0505 62.1106 29.8406C62.3824 29.6307 62.4274 29.2503 62.2084 28.9898C62.05 28.7986 61.7937 28.7274 61.563 28.7818L59.5546 26.3755L48.8397 25.4741Z" fill="white"/>
<path id="Vector_8" d="M65.5741 31.115C65.3199 31.115 65.1008 31.2611 65.0011 31.4692H49.7316L52.0647 28.7874L57.5815 29.2522C57.6616 29.4677 57.865 29.6308 58.1192 29.6532C58.4673 29.6832 58.7724 29.4358 58.8037 29.1041C58.835 28.7724 58.5769 28.4782 58.2307 28.4482C57.9765 28.4276 57.7457 28.5531 57.6284 28.7518L51.8378 28.2627L49.0491 31.4692H46.2154C46.1157 31.2611 45.8966 31.115 45.6424 31.115C45.2943 31.115 45.0107 31.3867 45.0107 31.7202C45.0107 32.0538 45.2943 32.3256 45.6424 32.3256C45.8966 32.3256 46.1157 32.1794 46.2154 31.9714H47.2851L50.0718 35.1779L55.8625 34.6888C55.9817 34.8874 56.2125 35.0149 56.4648 34.9923C56.8129 34.9624 57.0691 34.67 57.0378 34.3365C57.0065 34.0028 56.7014 33.7574 56.3533 33.7874C56.0991 33.8079 55.8957 33.9729 55.8156 34.1884L50.2987 34.6531L47.9676 31.9714H65.0011C65.1008 32.1794 65.3199 32.3256 65.5741 32.3256C65.9222 32.3256 66.2058 32.0538 66.2058 31.7202C66.2058 31.3867 65.9222 31.115 65.5741 31.115Z" fill="white"/>
<path id="Vector_9" d="M4.09756 29.84C4.36939 30.0481 4.76638 30.0068 4.98541 29.7464C5.14381 29.5552 5.16337 29.3022 5.05582 29.0961L6.92343 26.8584L21.0469 25.6666C21.1663 25.8652 21.397 25.9927 21.6493 25.9701C21.9974 25.9402 22.2535 25.6479 22.2223 25.3143C22.191 24.9807 21.8859 24.7352 21.5378 24.7652C21.2836 24.7858 21.0802 24.9488 21 25.1663L18.002 25.4192L11.0028 17.4171L11.3334 14.5686C11.5602 14.4973 11.7343 14.3043 11.7636 14.0626C11.8027 13.7308 11.5524 13.431 11.2062 13.3935C10.8601 13.3561 10.5472 13.5959 10.5081 13.9276C10.4807 14.1694 10.6059 14.3942 10.8112 14.5124L10.4572 17.5763L17.3645 25.4735L6.6516 26.3768L4.64318 28.7831C4.41046 28.7269 4.15623 28.8 3.99782 28.9911C3.78075 29.2498 3.82573 29.6321 4.09756 29.84Z" fill="white"/>
<path id="Vector_10" d="M17.3658 37.9663L10.529 45.781L10.4567 45.8635L10.8106 48.9257C10.6053 49.0437 10.4781 49.2668 10.5075 49.5104C10.5466 49.8421 10.8575 50.0819 11.2056 50.0445C11.5518 50.007 11.8021 49.709 11.763 49.3754C11.7356 49.1337 11.5596 48.9407 11.3327 48.8695L11.0023 46.0209L20.1096 35.6088C20.3404 35.6687 20.5965 35.6032 20.7608 35.4157C20.9857 35.159 20.9505 34.7786 20.6826 34.5631C20.4147 34.3476 20.0177 34.3813 19.7928 34.638C19.6285 34.8255 19.605 35.0785 19.7067 35.2864L17.7745 37.496L6.92087 36.5814L5.05325 34.3438C5.16081 34.1395 5.14321 33.8847 4.98285 33.6936C4.76577 33.433 4.36682 33.3899 4.09499 33.5998C3.82316 33.8079 3.77819 34.1902 3.99721 34.4506C4.15562 34.6418 4.41181 34.713 4.64257 34.6587L6.65099 37.0649L17.3658 37.9663Z" fill="white"/>
<path id="Vector_11" d="M16.4722 31.9716L14.1391 34.6534L8.62234 34.1886C8.54214 33.9731 8.33879 33.81 8.08455 33.7876C7.73644 33.7575 7.43136 34.0049 7.40008 34.3366C7.36879 34.6702 7.62693 34.9626 7.97307 34.9926C8.22732 35.0131 8.45805 34.8876 8.57543 34.6889L14.366 35.1762L17.1548 31.9697H19.9884C20.0881 32.1778 20.3072 32.3239 20.5614 32.3239C20.9095 32.3239 21.1931 32.0522 21.1931 31.7186C21.1931 31.385 20.9095 31.1133 20.5614 31.1133C20.3072 31.1133 20.0881 31.2595 19.9884 31.4675H18.9187L16.132 28.261L10.3413 28.7501C10.222 28.5515 9.99129 28.4241 9.73902 28.4465C9.39091 28.4766 9.13474 28.7689 9.16601 29.1025C9.19729 29.4361 9.50238 29.6815 9.85049 29.6516C10.1047 29.6309 10.3081 29.4679 10.3883 29.2505L15.9051 28.7857L18.2362 31.4675H1.20467C1.10492 31.2595 0.885898 31.1133 0.631666 31.1133C0.283565 31.1133 0 31.385 0 31.7186C0 32.0522 0.283565 32.3239 0.631666 32.3239C0.885898 32.3239 1.10492 32.1778 1.20467 31.9697H16.4722V31.9716Z" fill="white"/>
<path id="Vector_12" d="M44.6759 20.2731L44.3454 16.7968L48.5892 13.3879C48.8042 13.4854 49.0702 13.4629 49.2658 13.3055C49.5337 13.09 49.5689 12.7095 49.344 12.4528C49.1191 12.1961 48.7221 12.1623 48.4542 12.3779C48.2586 12.5353 48.1882 12.7807 48.2528 13.0019L43.7978 16.5794L44.1929 20.736L41.6037 23.2173C41.3787 23.1385 41.1187 23.1835 40.9368 23.356C40.6903 23.592 40.6903 23.9762 40.9368 24.2124C41.1831 24.4485 41.5841 24.4485 41.8305 24.2124C42.0104 24.04 42.0574 23.7888 41.9752 23.5752L43.3168 22.2896L47.6544 22.6682L51.3877 18.3991C51.6184 18.4591 51.8745 18.3935 52.0388 18.2061C52.2637 17.9493 52.2286 17.5689 51.9607 17.3534C51.6927 17.1378 51.2957 17.1716 51.0708 17.4284C50.9065 17.6157 50.8831 17.8687 50.9848 18.0768L47.4275 22.1435L43.7998 21.8267L55.8445 10.2845C56.0694 10.3632 56.3295 10.3183 56.5114 10.1459C56.7577 9.90973 56.7577 9.52557 56.5114 9.28942C56.2649 9.05327 55.864 9.05327 55.6177 9.28942C55.4377 9.46181 55.3908 9.71295 55.473 9.92658L44.6759 20.2731Z" fill="white"/>
<path id="Vector_13" d="M21.5297 43.1677L21.8603 46.6441L17.6166 50.0529C17.4014 49.9554 17.1354 49.978 16.9399 50.1354C16.672 50.3509 16.6368 50.7313 16.8617 50.988C17.0866 51.2448 17.4836 51.2786 17.7515 51.0631C17.947 50.9056 18.0174 50.6601 17.9529 50.4389L22.4078 46.8614L22.0128 42.7048L23.8863 40.9095C24.1112 40.9882 24.3713 40.9432 24.5512 40.7708C24.7976 40.5347 24.7976 40.1505 24.5512 39.9144C24.3047 39.6783 23.9039 39.6783 23.6574 39.9144C23.4775 40.0868 23.4306 40.338 23.5128 40.5516L22.8869 41.1512L18.5494 40.7727L14.8161 45.0418C14.5853 44.9818 14.3292 45.0474 14.1649 45.2348C13.94 45.4915 13.9751 45.8719 14.2431 46.0874C14.511 46.303 14.908 46.2692 15.1329 46.0125C15.2972 45.8251 15.3207 45.5721 15.2189 45.3641L18.7762 41.2974L22.4039 41.6141L10.3592 53.1563C10.1343 53.0776 9.8742 53.1226 9.69435 53.295C9.44791 53.5311 9.44791 53.9153 9.69435 54.1514C9.94071 54.3876 10.3416 54.3876 10.588 54.1514C10.7679 53.979 10.8149 53.7279 10.7328 53.5143L21.5297 43.1677Z" fill="white"/>
<path id="Vector_14" d="M51.5283 52.1692C51.276 52.1954 51.0745 52.3641 51.0002 52.5814L48.0276 52.8982L37.1622 44.1708C37.2249 43.9496 37.1564 43.7041 36.9608 43.5467C36.6929 43.3312 36.2959 43.3649 36.071 43.6217C35.8461 43.8784 35.8813 44.2588 36.1492 44.4744C36.3448 44.6318 36.6088 44.6543 36.8259 44.5568L39.1316 46.4084L38.1772 56.8093L35.8422 58.599C35.6291 58.4959 35.3631 58.5128 35.1636 58.6665C34.8918 58.8745 34.8468 59.2568 35.0658 59.5173C35.2848 59.7778 35.6818 59.8209 35.9537 59.611C36.1531 59.4592 36.2274 59.2137 36.1707 58.9925L38.6798 57.0679L39.6224 46.8019L47.7774 53.3536L47.8634 53.4229L51.0589 53.0837C51.1821 53.2805 51.4148 53.4023 51.6691 53.3742C52.0152 53.3367 52.2655 53.0387 52.2264 52.7051C52.1873 52.3716 51.8744 52.1317 51.5283 52.1692Z" fill="white"/>
<path id="Vector_15" d="M55.8426 53.1579L45.0455 42.8114L48.6752 42.4946L52.2325 46.5613C52.1308 46.7675 52.1542 47.0223 52.3185 47.2097C52.5434 47.4664 52.9404 47.5002 53.2083 47.2846C53.4762 47.0691 53.5115 46.6887 53.2866 46.432C53.1223 46.2446 52.8661 46.1771 52.6353 46.2389L48.9021 41.9699L44.5645 42.3485L41.4863 39.3987L41.0913 39.0202L40.6493 38.5967L39.4682 37.4647L39.0066 37.0224L38.2419 37L38.7289 37.4666L40.2817 38.9546L40.7237 39.3781L41.1187 39.7567L42.9491 41.5108L42.5541 45.6674L47.0091 49.2449C46.9464 49.4661 47.0149 49.7115 47.2104 49.8689C47.4784 50.0845 47.8753 50.0507 48.1002 49.794C48.3252 49.5373 48.2899 49.1568 48.022 48.9413C47.8265 48.7839 47.5624 48.7614 47.3454 48.8589L43.1016 45.45L43.4322 41.9717L55.4749 53.5121C55.3908 53.7276 55.4378 53.9787 55.6196 54.1511C55.866 54.3873 56.2669 54.3873 56.5134 54.1511C56.7597 53.915 56.7597 53.5309 56.5134 53.2947C56.3295 53.1223 56.0675 53.0773 55.8426 53.1579Z" fill="white"/>
<path id="Vector_16" d="M14.6768 11.2711C14.9291 11.2448 15.1305 11.0762 15.2048 10.8588L18.1774 10.5421L29.0428 19.2695C28.9802 19.4906 29.0486 19.7361 29.2442 19.8936C29.5121 20.1091 29.9091 20.0753 30.134 19.8186C30.3589 19.5618 30.3237 19.1814 30.0558 18.9659C29.8602 18.8085 29.5962 18.786 29.3791 18.8834L27.0734 17.0319L28.0278 6.63099L30.3628 4.84128C30.5759 4.94436 30.842 4.92749 31.0414 4.77382C31.3132 4.5658 31.3582 4.18349 31.1392 3.92301C30.9221 3.66252 30.5232 3.61941 30.2513 3.82931C30.0519 3.9811 29.9776 4.2266 30.0343 4.44773L27.5252 6.37237L26.5826 16.6383L18.4277 10.0867L18.3416 10.0174L15.1461 10.3566C15.0229 10.1598 14.7902 10.038 14.536 10.0661C14.1898 10.1036 13.9395 10.4016 13.9786 10.7351C14.0177 11.0687 14.3306 11.3086 14.6768 11.2711Z" fill="white"/>
<path id="Vector_17" d="M10.3604 10.2826L21.1574 20.6292L17.5297 20.9459L13.9725 16.8793C14.0741 16.6712 14.0507 16.4182 13.8864 16.2308C13.6615 15.9741 13.2646 15.9404 12.9966 16.1559C12.7287 16.3714 12.6935 16.7518 12.9184 17.0085C13.0827 17.196 13.3389 17.2634 13.5696 17.2016L17.3029 21.4706L21.6405 21.0921L28.5595 27.7225L28.8352 27.2746L28.7316 27.1752L28.5008 26.9541L25.9272 24.4879L25.4853 24.0643L25.0902 23.6858L23.2598 21.9317L23.6548 17.7751L19.1999 14.1975C19.2624 13.9764 19.194 13.7309 18.9984 13.5734C18.7305 13.358 18.3335 13.3917 18.1087 13.6484C17.8838 13.9052 17.9189 14.2856 18.1868 14.5011C18.3824 14.6585 18.6464 14.6811 18.8635 14.5836L23.1072 17.9924L22.7767 21.4706L10.734 9.92845C10.8181 9.71295 10.7711 9.46181 10.5892 9.28942C10.3429 9.05327 9.94193 9.05327 9.69557 9.28942C9.44913 9.52557 9.44913 9.90973 9.69557 10.1459C9.87542 10.3183 10.1375 10.3632 10.3604 10.2826Z" fill="white"/>
<path id="Vector_18" d="M42.8676 31.0996C42.627 31.0996 42.4178 31.227 42.3063 31.4144H37.4407V27.9962L39.4179 26.1015C39.635 26.1577 39.8774 26.1071 40.0476 25.9441C40.2998 25.7023 40.2998 25.3088 40.0476 25.0652C39.7933 24.8234 39.3846 24.8234 39.1304 25.0652C38.9602 25.2282 38.9054 25.4606 38.9661 25.6686L37.4407 27.1303V22.9175L33.4219 22.8913V21.7163C33.6175 21.6094 33.7505 21.4108 33.7505 21.1784C33.7505 20.8355 33.4611 20.5581 33.1032 20.5581C32.7452 20.5581 32.4559 20.8355 32.4559 21.1784C32.4559 21.4089 32.5888 21.6075 32.7844 21.7163V22.8894L31.3196 22.88L28.5368 26.9111L25.9495 24.4317C26.0082 24.2238 25.9553 23.9932 25.7852 23.8283C25.5329 23.5865 25.1223 23.5865 24.8681 23.8283C24.6138 24.0701 24.6158 24.4636 24.8681 24.7072C25.0382 24.8702 25.2807 24.9209 25.4978 24.8647L28.175 27.4302L27.1424 28.9275C27.1405 28.9275 27.1405 28.9275 27.1405 28.9275C26.9156 28.9125 26.6887 29.01 26.5538 29.2049C26.3563 29.4897 26.4384 29.8759 26.7376 30.0651C27.0348 30.2543 27.4377 30.1757 27.6352 29.889C27.7682 29.6959 27.7741 29.456 27.6724 29.2649L28.6365 27.8706L28.6678 27.8237L28.9631 27.3965L28.9964 27.3496L31.6599 23.491L32.7844 23.4985L32.8411 23.5003L33.3652 23.5022L33.4219 23.5041L36.8032 23.5266V32.0272H40.294V36.851H38.9094H38.0078H36.8032V39.9507H33.4219H32.7844H31.8281V36.851H25.9143V31.4144H23.902C23.7905 31.227 23.5813 31.0996 23.3407 31.0996C22.9828 31.0996 22.6934 31.3769 22.6934 31.7199C22.6934 32.0628 22.9848 32.3402 23.3407 32.3402C23.5813 32.3402 23.7885 32.2146 23.902 32.0254H25.2787V37.462H26.6633L26.0629 38.0372C25.8458 37.981 25.6053 38.0298 25.4332 38.1946C25.1809 38.4365 25.1809 38.8299 25.4332 39.0736C25.6874 39.3154 26.0961 39.3154 26.3504 39.0736C26.5225 38.9087 26.5753 38.6782 26.5146 38.4702L26.5166 38.4683L27.5668 37.462H31.1945V40.5616H32.7883V41.7253C32.5927 41.8322 32.4598 42.0308 32.4598 42.2632C32.4598 42.6062 32.7492 42.8835 33.107 42.8835C33.465 42.8835 33.7543 42.6062 33.7543 42.2632C33.7543 42.0327 33.6214 41.8322 33.4258 41.7253V40.5635H37.4446V37.4638H38.6493L40.2627 39.0099C40.204 39.2179 40.2568 39.4503 40.4269 39.6133C40.6792 39.8551 41.09 39.8551 41.3442 39.6133C41.5964 39.3716 41.5964 38.978 41.3442 38.7344C41.174 38.5714 40.9315 38.5207 40.7145 38.5769L39.5509 37.462H40.9355V32.0254H42.3122C42.4237 32.2127 42.631 32.3402 42.8734 32.3402C43.2314 32.3402 43.5207 32.0628 43.5207 31.7199C43.5169 31.3769 43.2254 31.0996 42.8676 31.0996Z" fill="white"/>
<path id="Vector_19" d="M27.2021 32.0375V35.7331H32.7151V38.6229H32.7815H33.4191H34.2131C34.3245 38.8103 34.5357 38.9377 34.7782 38.9377C35.1361 38.9377 35.4255 38.6584 35.4255 38.3174C35.4255 37.9745 35.1341 37.6971 34.7782 37.6971C34.5377 37.6971 34.3265 37.8245 34.2131 38.0119H33.4191H33.3525V35.1222H32.7815H27.8396V32.223L28.262 31.6102L28.397 31.4153L29.1499 30.3246C29.3748 30.3396 29.6017 30.2422 29.7366 30.0473C29.9341 29.7624 29.852 29.3763 29.5528 29.1871C29.2555 28.9978 28.8527 29.0765 28.6552 29.3632C28.5222 29.5563 28.5163 29.7961 28.618 29.9873L27.208 32.0281L27.2021 32.0375Z" fill="white"/>
<path id="Vector_20" d="M33.422 24.8288L32.7845 24.825L32.188 24.8213L31.6326 25.6253C31.4077 25.6121 31.1809 25.7096 31.0479 25.9026C30.8484 26.1894 30.9325 26.5735 31.2317 26.7628C31.529 26.9521 31.9318 26.8733 32.1294 26.5866C32.2623 26.3936 32.2682 26.1556 32.1645 25.9626L32.5303 25.4341L32.7865 25.436L33.4239 25.4397L35.1117 25.451V33.3875H38.3678V35.121H36.6449C36.5335 34.9336 36.3223 34.8062 36.0797 34.8062C36.0406 34.8062 36.0054 34.808 35.9682 34.8155C35.9448 34.8193 35.9233 34.823 35.9017 34.8286C35.6299 34.9036 35.4324 35.1435 35.4324 35.4246C35.4324 35.7694 35.7238 36.0449 36.0797 36.0449C36.3202 36.0449 36.5314 35.9193 36.6449 35.7301H39.0073V32.7728H35.7492V24.84L33.422 24.8288Z" fill="white"/>
<path id="Vector_21" d="M34.3114 29.0083C34.3114 28.6653 34.022 28.3879 33.6641 28.3879C33.5781 28.3879 33.4959 28.4049 33.4197 28.4348C33.4001 28.4423 33.3806 28.4498 33.363 28.4592C33.1557 28.5641 33.0149 28.7702 33.0149 29.0101C33.0149 29.0402 33.0168 29.0683 33.0227 29.0964C33.0501 29.2912 33.1733 29.4562 33.3453 29.5499V32.4603C33.1478 32.5671 33.0168 32.7695 33.0168 33.0019C33.0168 33.2623 33.185 33.4853 33.4217 33.5772C33.4959 33.6072 33.58 33.624 33.6661 33.624C33.9281 33.624 34.155 33.4722 34.2547 33.2567C34.2938 33.1799 34.3134 33.0937 34.3134 33.0019C34.3134 32.7714 34.1824 32.5689 33.9849 32.4603V29.5499C34.1804 29.443 34.3114 29.2407 34.3114 29.0083Z" fill="white"/>
<path id="Vector_22" d="M76.7264 38.8103C76.7264 39.1514 76.6579 39.4437 76.5191 39.6893C76.3802 39.9348 76.1886 40.1221 75.9441 40.2533C75.6997 40.3845 75.4142 40.4501 75.0915 40.4501H73.8027V37.2324H74.9468C75.5159 37.2324 75.9539 37.3692 76.2629 37.6428C76.5719 37.9164 76.7264 38.3044 76.7264 38.8103ZM76.1847 38.8103C76.1847 38.4299 76.0772 38.1394 75.8639 37.9389C75.6508 37.7383 75.3399 37.639 74.937 37.639H74.3386V40.0435H75.0367C75.2695 40.0435 75.4729 39.9928 75.645 39.8935C75.817 39.7923 75.9501 39.6499 76.0439 39.4663C76.1378 39.2807 76.1847 39.0633 76.1847 38.8103Z" fill="white"/>
<path id="Vector_23" d="M80.5228 38.8241C80.5228 39.1652 80.4544 39.4613 80.3175 39.7106C80.1806 39.9598 79.985 40.1528 79.7347 40.2896C79.4844 40.4264 79.1872 40.4939 78.8429 40.4939C78.4988 40.4939 78.2016 40.4264 77.9512 40.2934C77.7009 40.1604 77.5092 39.9673 77.3742 39.718C77.2394 39.4688 77.1729 39.1708 77.1729 38.826C77.1729 38.4812 77.2394 38.187 77.3723 37.9434C77.5053 37.6997 77.697 37.5123 77.9472 37.3811C78.1976 37.2499 78.4988 37.1844 78.8488 37.1844C79.1969 37.1844 79.4961 37.2499 79.7465 37.3793C79.9968 37.5086 80.1885 37.6959 80.3234 37.9414C80.4564 38.1851 80.5228 38.4793 80.5228 38.8241ZM79.9752 38.8241C79.9752 38.4418 79.8775 38.142 79.6799 37.9227C79.4824 37.7035 79.2067 37.5948 78.8488 37.5948C78.489 37.5948 78.2093 37.7015 78.0118 37.9171C77.8143 38.1326 77.7165 38.4343 77.7165 38.8223C77.7165 39.079 77.7615 39.302 77.8515 39.4894C77.9414 39.6768 78.0705 39.823 78.2406 39.9242C78.4088 40.0254 78.6103 40.0779 78.8449 40.0779C79.2087 40.0779 79.4883 39.9692 79.6838 39.7499C79.8775 39.5344 79.9752 39.2251 79.9752 38.8241ZM78.5594 36.5078V36.9557H78.1428V36.5078H78.5594ZM79.543 36.5078V36.9557H79.1285V36.5078H79.543Z" fill="white"/>
<path id="Vector_24" d="M81.6584 39.1533V40.4501H81.1221V37.2324H82.7334C83.119 37.2324 83.418 37.3129 83.6278 37.476C83.8368 37.639 83.9421 37.8696 83.9421 38.1657C83.9421 38.3999 83.8716 38.5985 83.7307 38.7616C83.5905 38.9246 83.3969 39.0296 83.1506 39.0746L84.0887 40.4501H83.4747L82.6338 39.1533H81.6584ZM83.401 38.1769C83.401 38.0007 83.3402 37.8658 83.2171 37.7759C83.0939 37.6841 82.9133 37.639 82.6791 37.639H81.66V38.7485H82.6986C82.9238 38.7485 83.0972 38.6979 83.2187 38.5985C83.3402 38.4974 83.401 38.3568 83.401 38.1769Z" fill="white"/>
<path id="Vector_25" d="M87.571 38.8103C87.571 39.1514 87.5029 39.4437 87.3636 39.6893C87.225 39.9348 87.033 40.1221 86.7892 40.2533C86.5445 40.3845 86.2586 40.4501 85.9361 40.4501H84.6472V37.2324H85.7919C86.3606 37.2324 86.7989 37.3692 87.1076 37.6428C87.417 37.9145 87.571 38.3044 87.571 38.8103ZM87.0314 38.8103C87.0314 38.4299 86.9237 38.1394 86.7106 37.9389C86.4959 37.7383 86.1865 37.639 85.7838 37.639H85.1851V40.0435H85.8835C86.116 40.0435 86.3193 39.9928 86.4919 39.8935C86.6636 39.7923 86.7965 39.6499 86.8905 39.4663C86.9828 39.2807 87.0314 39.0633 87.0314 38.8103Z" fill="white"/>
<path id="Vector_26" d="M89.5305 40.4939C89.2453 40.4939 88.9982 40.4452 88.7917 40.3477C88.5843 40.2503 88.4239 40.1097 88.3121 39.9279C88.2003 39.7461 88.1436 39.525 88.1436 39.2682V37.2312H88.6815V39.2251C88.6815 39.5063 88.7544 39.7199 88.901 39.8661C89.0477 40.0123 89.2583 40.0835 89.5345 40.0835C89.8197 40.0835 90.0409 40.0085 90.1972 39.8567C90.3536 39.7049 90.4322 39.4857 90.4322 39.197V37.2312H90.9677V39.2289C90.9677 39.4931 90.9093 39.718 90.7935 39.9073C90.6784 40.0966 90.5124 40.2409 90.2969 40.3421C90.0838 40.4433 89.8278 40.4939 89.5305 40.4939ZM89.2704 36.5078V36.9557H88.854V36.5078H89.2704ZM90.2539 36.5078V36.9557H89.8391V36.5078H90.2539Z" fill="white"/>
<path id="Vector_27" d="M92.1717 38.3924V40.4501H91.6946V37.2324H92.3151L94.0196 39.9048C93.9986 39.6274 93.9864 39.4138 93.9864 39.2638V37.2343H94.4676V40.452H93.8268L92.1426 37.7984C92.1483 37.907 92.1547 38.0101 92.162 38.1095C92.1677 38.205 92.1717 38.3006 92.1717 38.3924Z" fill="white"/>
<path id="Vector_28" d="M96.7444 40.079C97.2005 40.079 97.5342 39.8616 97.7481 39.4287L98.1977 39.6236C98.0624 39.9122 97.8688 40.1277 97.6169 40.2758C97.3641 40.4219 97.0692 40.4969 96.729 40.4969C96.383 40.4969 96.0857 40.4294 95.8395 40.2963C95.5924 40.1633 95.4028 39.9703 95.2699 39.7192C95.1387 39.4681 95.0723 39.172 95.0723 38.8271C95.0723 38.4823 95.1371 38.1862 95.2659 37.9407C95.3955 37.6952 95.5826 37.5078 95.8289 37.3785C96.0736 37.2492 96.3709 37.1836 96.7168 37.1836C97.087 37.1836 97.3941 37.2529 97.6363 37.3935C97.8785 37.5341 98.0551 37.7402 98.1645 38.012L97.6695 38.1581C97.6007 37.98 97.484 37.8414 97.3171 37.744C97.151 37.6465 96.9558 37.5959 96.7265 37.5959C96.3733 37.5959 96.0995 37.7046 95.9075 37.9201C95.7155 38.1356 95.6199 38.4373 95.6199 38.8234C95.6199 39.0801 95.6653 39.3031 95.7552 39.4905C95.8451 39.678 95.9739 39.8223 96.1424 39.9253C96.3101 40.0284 96.5119 40.079 96.7444 40.079Z" fill="white"/>
<path id="Vector_29" d="M100.102 40.4939C99.8158 40.4939 99.5695 40.4452 99.3621 40.3477C99.1547 40.2503 98.9943 40.1097 98.8834 39.9279C98.7716 39.7461 98.7148 39.525 98.7148 39.2682V37.2312H99.2528V39.2251C99.2528 39.5063 99.3249 39.7199 99.4715 39.8661C99.6189 40.0123 99.8296 40.0835 100.106 40.0835C100.391 40.0835 100.612 40.0085 100.769 39.8567C100.925 39.7049 101.003 39.4857 101.003 39.197V37.2312H101.539V39.2289C101.539 39.4931 101.481 39.718 101.365 39.9073C101.25 40.0966 101.084 40.2409 100.868 40.3421C100.655 40.4433 100.399 40.4939 100.102 40.4939ZM99.8417 36.5078V36.9557H99.4253V36.5078H99.8417ZM100.827 36.5078V36.9557H100.413V36.5078H100.827Z" fill="white"/>
<path id="Vector_30" d="M106.29 39.5467C106.29 39.8504 106.169 40.0827 105.927 40.2477C105.684 40.4126 105.336 40.4951 104.886 40.4951C104.058 40.4951 103.578 40.2158 103.444 39.6555L103.965 39.5637C104.014 39.7492 104.115 39.8859 104.272 39.9722C104.426 40.0584 104.638 40.1015 104.907 40.1015C105.185 40.1015 105.398 40.0565 105.545 39.9684C105.692 39.8803 105.766 39.7492 105.766 39.5787C105.766 39.4774 105.74 39.3969 105.688 39.3312C105.637 39.2676 105.563 39.2151 105.466 39.1738C105.389 39.1382 105.293 39.1082 105.176 39.0801C105.06 39.052 104.925 39.0239 104.775 38.9902C104.6 38.9527 104.459 38.9171 104.348 38.8833C104.237 38.8515 104.147 38.8159 104.076 38.7803C104.006 38.7447 103.945 38.7072 103.891 38.6678C103.798 38.5985 103.728 38.5123 103.678 38.413C103.627 38.3136 103.603 38.1956 103.603 38.0588C103.603 37.7777 103.715 37.5603 103.938 37.4103C104.16 37.2604 104.479 37.1836 104.898 37.1836C105.291 37.1836 105.59 37.2417 105.795 37.3579C105.999 37.4741 106.137 37.6709 106.212 37.9463L105.688 38.0269C105.643 37.8676 105.557 37.7495 105.43 37.6746C105.303 37.5996 105.123 37.5622 104.892 37.5622C104.642 37.5622 104.452 37.6015 104.323 37.6783C104.192 37.7552 104.127 37.8733 104.127 38.0269C104.127 38.1206 104.152 38.1993 104.205 38.2593C104.256 38.3212 104.332 38.3717 104.43 38.4148C104.524 38.4561 104.722 38.5086 105.023 38.5722C105.162 38.6023 105.291 38.6323 105.414 38.6641C105.537 38.6941 105.647 38.7297 105.744 38.7709C105.811 38.7971 105.874 38.8271 105.932 38.8627C105.991 38.8983 106.04 38.9377 106.083 38.9826C106.149 39.052 106.202 39.1307 106.239 39.2245C106.272 39.3181 106.29 39.425 106.29 39.5467Z" fill="white"/>
<path id="Vector_31" d="M109.363 38.5706C109.326 38.2652 109.216 38.0253 109.035 37.8528C108.852 37.6804 108.614 37.5943 108.323 37.5943C108.094 37.5943 107.904 37.6411 107.751 37.7348C107.599 37.8285 107.48 37.9634 107.396 38.1396L106.897 37.9953C107.014 37.7329 107.192 37.5324 107.433 37.3937C107.671 37.255 107.969 37.1838 108.324 37.1838C108.671 37.1838 108.966 37.2569 109.21 37.4031C109.439 37.5362 109.613 37.7235 109.735 37.9691C109.856 38.2127 109.916 38.4994 109.916 38.8273C109.916 39.1628 109.852 39.4571 109.722 39.7082C109.594 39.9612 109.41 40.1561 109.168 40.291C108.927 40.4278 108.643 40.4953 108.319 40.4953C107.99 40.4953 107.704 40.4278 107.464 40.2929C107.223 40.1598 107.038 39.9649 106.911 39.7138C106.783 39.4608 106.721 39.1665 106.721 38.8273C106.721 38.7899 106.723 38.7487 106.725 38.7056C106.727 38.6625 106.731 38.6175 106.735 38.5706H109.363ZM108.319 40.0999C108.643 40.0999 108.898 40.0043 109.079 39.8112C109.262 39.6182 109.359 39.3446 109.377 38.9904H107.249C107.273 39.3409 107.378 39.6126 107.566 39.8075C107.753 40.0024 108.006 40.0999 108.319 40.0999Z" fill="white"/>
<path id="Vector_32" d="M110.986 38.3924V40.4501H110.509V37.2324H111.129L112.834 39.9048C112.812 39.6274 112.801 39.4138 112.801 39.2638V37.2343H113.282V40.452H112.64L110.956 37.7984C110.962 37.907 110.968 38.0101 110.976 38.1095C110.982 38.205 110.986 38.3006 110.986 38.3924Z" fill="white"/>
<path id="Vector_33" d="M114.609 39.546L114.251 40.4475H113.703L115.023 37.2297H115.645L116.952 40.4475H116.41L116.054 39.546H114.609ZM115.33 37.6158C115.307 37.6926 115.277 37.7807 115.244 37.88C115.211 37.9775 115.18 38.06 115.154 38.1236L114.752 39.1544H115.911L115.5 38.1086C115.479 38.0524 115.452 37.9812 115.422 37.895C115.393 37.807 115.364 37.7132 115.33 37.6158Z" fill="white"/>
<path id="Vector_34" d="M118.505 39.1188V40.4475H117.969V39.1188L116.712 37.2297H117.29L118.239 38.7047L119.189 37.2297H119.769L118.505 39.1188Z" fill="white"/>
<path id="Vector_35" d="M122.919 40.0373V40.4477H120.243V37.23H122.821V37.6404H120.779V38.598H122.676V39.0066H120.779V40.0373H122.919Z" fill="white"/>
<path id="Vector_36" d="M125.422 37.231V40.4486H124.886V37.231H125.422ZM125.41 36.4082V36.828H124.902V36.4082H125.41Z" fill="white"/>
<path id="Vector_37" d="M126.685 38.3924V40.4501H126.208V37.2324H126.828L128.533 39.9048C128.512 39.6274 128.5 39.4138 128.5 39.2638V37.2343H128.981V40.452H128.34L126.656 37.7984C126.662 37.907 126.668 38.0101 126.676 38.1095C126.684 38.205 126.685 38.3006 126.685 38.3924Z" fill="white"/>
<path id="Vector_38" d="M132.929 38.8256C132.929 39.1217 132.877 39.386 132.773 39.6165C132.667 39.847 132.516 40.0325 132.321 40.1768C132.126 40.3211 131.889 40.4129 131.613 40.456C131.675 40.6341 131.758 40.7634 131.862 40.8421C131.965 40.9208 132.1 40.9602 132.266 40.9602C132.358 40.9602 132.45 40.9508 132.542 40.932L132.54 41.2881C132.378 41.3237 132.22 41.3425 132.067 41.3425C131.82 41.3425 131.617 41.2768 131.459 41.1438C131.299 41.0108 131.169 40.7896 131.069 40.4785C130.755 40.4579 130.487 40.3792 130.266 40.2387C130.044 40.0981 129.874 39.9089 129.757 39.667C129.64 39.4253 129.581 39.1442 129.581 38.8238C129.581 38.4789 129.647 38.1847 129.78 37.9411C129.914 37.6975 130.105 37.5101 130.356 37.3789C130.606 37.2477 130.907 37.1821 131.257 37.1821C131.611 37.1821 131.914 37.2477 132.163 37.3808C132.413 37.5138 132.603 37.7012 132.733 37.9467C132.863 38.1941 132.929 38.4864 132.929 38.8256ZM132.379 38.8256C132.379 38.4433 132.282 38.1435 132.084 37.9242C131.887 37.705 131.611 37.5963 131.253 37.5963C130.893 37.5963 130.614 37.703 130.416 37.9186C130.219 38.1341 130.121 38.4358 130.121 38.8238C130.121 39.0805 130.166 39.3035 130.256 39.4909C130.346 39.6783 130.475 39.8245 130.643 39.9276C130.812 40.0306 131.013 40.0812 131.247 40.0812C131.611 40.0812 131.891 39.9725 132.086 39.7533C132.282 39.5359 132.379 39.2266 132.379 38.8256Z" fill="white"/>
<path id="Vector_39" d="M134.099 37.231V40.4486H133.563V37.231H134.099ZM134.088 36.4082V36.828H133.579V36.4082H134.088Z" fill="white"/>
<path id="Vector_40" d="M137.154 40.0373V40.4477H134.886V37.23H135.421V40.0354H137.154V40.0373Z" fill="white"/>
<path id="Vector_41" d="M138.264 39.546L137.906 40.4475H137.358L138.679 37.2297H139.301L140.607 40.4475H140.065L139.709 39.546H138.264ZM138.986 37.6158C138.962 37.6926 138.933 37.7807 138.9 37.88C138.867 37.9775 138.835 38.06 138.81 38.1236L138.407 39.1544H139.567L139.156 38.1086C139.134 38.0524 139.107 37.9812 139.077 37.895C139.048 37.807 139.018 37.7132 138.986 37.6158Z" fill="white"/>
<path id="Vector_42" d="M143.756 39.5369C143.756 39.8255 143.644 40.0504 143.423 40.2097C143.202 40.369 142.893 40.4477 142.5 40.4477H141.031V37.23H142.355C142.754 37.23 143.053 37.2956 143.257 37.4286C143.458 37.5617 143.56 37.7585 143.56 38.0208C143.56 38.2082 143.505 38.3657 143.395 38.495C143.286 38.6243 143.128 38.7105 142.922 38.7536C143.19 38.7836 143.398 38.8679 143.54 39.0066C143.685 39.1453 143.756 39.3214 143.756 39.5369ZM143.02 38.0883C143.02 37.9234 142.963 37.8072 142.848 37.736C142.735 37.6666 142.566 37.6311 142.345 37.6311H141.569V38.5755H142.348C142.576 38.5755 142.745 38.5362 142.856 38.4538C142.965 38.375 143.02 38.2513 143.02 38.0883ZM143.214 39.4995C143.214 39.1471 142.954 38.9691 142.431 38.9691H141.569V40.0486H142.464C142.724 40.0486 142.915 40.0017 143.034 39.9099C143.153 39.818 143.214 39.6813 143.214 39.4995Z" fill="white"/>
<path id="Vector_43" d="M144.948 37.2324V40.4501H144.413V37.2324H144.948Z" fill="white"/>
<path id="Vector_44" d="M146.21 38.3924V40.4501H145.733V37.2324H146.352L148.058 39.9048C148.037 39.6274 148.025 39.4138 148.025 39.2638V37.2343H148.506V40.452H147.864L146.181 37.7984C146.186 37.907 146.192 38.0101 146.2 38.1095C146.208 38.205 146.21 38.3006 146.21 38.3924Z" fill="white"/>
<path id="Vector_45" d="M149.828 37.2324V40.4501H149.292V37.2324H149.828Z" fill="white"/>
<path id="Vector_46" d="M151.091 38.3924V40.4501H150.614V37.2324H151.235L152.94 39.9048C152.918 39.6274 152.906 39.4138 152.906 39.2638V37.2343H153.387V40.452H152.747L151.062 37.7984C151.068 37.907 151.074 38.0101 151.082 38.1095C151.087 38.205 151.091 38.3006 151.091 38.3924Z" fill="white"/>
<path id="Vector_47" d="M75.4709 44.5574V47.3628H74.935V44.5574H73.8027V44.147H76.5993V44.5574H75.4709Z" fill="white"/>
<path id="Vector_48" d="M79.5532 45.4844C79.516 45.179 79.4066 44.9391 79.2247 44.7667C79.0428 44.5943 78.8042 44.5081 78.5128 44.5081C78.284 44.5081 78.0943 44.555 77.9418 44.6486C77.7892 44.7424 77.67 44.8773 77.5858 45.0534L77.0872 44.9092C77.2045 44.6468 77.3825 44.4463 77.623 44.3076C77.8616 44.1689 78.1588 44.0977 78.5148 44.0977C78.8609 44.0977 79.1562 44.1708 79.4007 44.317C79.6295 44.45 79.8035 44.6374 79.9248 44.8829C80.046 45.1265 80.1067 45.4132 80.1067 45.7412C80.1067 46.0766 80.0421 46.3709 79.9131 46.622C79.784 46.875 79.6001 47.0699 79.3576 47.2048C79.1171 47.3416 78.8336 47.4091 78.5089 47.4091C78.1804 47.4091 77.8949 47.3416 77.6543 47.2067C77.4137 47.0737 77.228 46.8787 77.1009 46.6276C76.9738 46.3765 76.9111 46.0804 76.9111 45.7412C76.9111 45.7037 76.9131 45.6625 76.915 45.6194C76.917 45.5763 76.9209 45.5313 76.9248 45.4844H79.5532ZM78.5089 47.0137C78.8355 47.0137 79.0878 46.9181 79.2697 46.7251C79.4515 46.5321 79.5493 46.2584 79.5669 45.9042H77.4392C77.4627 46.2547 77.5682 46.5264 77.756 46.7213C77.9437 46.9162 78.196 47.0137 78.5089 47.0137Z" fill="white"/>
<path id="Vector_49" d="M81.2351 45.9105V47.3647H80.6992V44.147H81.2351V45.4813H82.9348V44.147H83.4727V47.3647H82.9348V45.9105H81.2351Z" fill="white"/>
<path id="Vector_50" d="M86.4908 46.9528V47.3632H84.2217V44.1455H84.758V46.9509H86.4908V46.9528Z" fill="white"/>
<path id="Vector_51" d="M87.5941 44.1471V47.3649H87.0586V44.1471H87.5941ZM87.5827 43.3245V43.7442H87.074V43.3245H87.5827Z" fill="white"/>
<path id="Vector_52" d="M90.649 46.9528V47.3632H88.3799V44.1455H88.9162V46.9509H90.649V46.9528Z" fill="white"/>
<path id="Vector_53" d="M91.7541 44.1474V47.3651H91.2178V44.1474H91.7541ZM91.7403 43.3247V43.7444H91.2315V43.3247H91.7403Z" fill="white"/>
<path id="Vector_54" d="M96.7483 44.147L95.4245 47.3647H94.8744L93.5466 44.147H94.1097L94.9603 46.3452C94.9943 46.4296 95.0251 46.5195 95.0567 46.6188C95.0859 46.7163 95.1191 46.8193 95.1539 46.9281C95.1936 46.8025 95.2268 46.69 95.2576 46.5926C95.2892 46.4951 95.3184 46.4127 95.3443 46.3452L96.1909 44.147H96.7483Z" fill="white"/>
<path id="Vector_55" d="M99.6338 45.4844C99.5966 45.179 99.4872 44.9391 99.3049 44.7667C99.1235 44.5943 98.8845 44.5081 98.5928 44.5081C98.3644 44.5081 98.1748 44.555 98.0225 44.6486C97.8694 44.7424 97.7503 44.8773 97.666 45.0534L97.1678 44.9092C97.2845 44.6468 97.4627 44.4463 97.7033 44.3076C97.9423 44.1689 98.2396 44.0977 98.5953 44.0977C98.9412 44.0977 99.2369 44.1708 99.4807 44.317C99.71 44.45 99.8842 44.6374 100.005 44.8829C100.126 45.1265 100.187 45.4132 100.187 45.7412C100.187 46.0766 100.122 46.3709 99.9935 46.622C99.8647 46.875 99.6808 47.0699 99.4378 47.2048C99.1972 47.3416 98.9136 47.4091 98.5896 47.4091C98.2607 47.4091 97.9755 47.3416 97.7349 47.2067C97.4943 47.0737 97.308 46.8787 97.1816 46.6276C97.0544 46.3765 96.9912 46.0804 96.9912 45.7412C96.9912 45.7037 96.9936 45.6625 96.9953 45.6194C96.9977 45.5763 97.0009 45.5313 97.005 45.4844H99.6338ZM98.5896 47.0137C98.9161 47.0137 99.168 46.9181 99.3503 46.7251C99.5318 46.5321 99.6298 46.2584 99.6476 45.9042H97.5194C97.5429 46.2547 97.6482 46.5264 97.8362 46.7213C98.0241 46.9162 98.2761 47.0137 98.5896 47.0137Z" fill="white"/>
<path id="Vector_56" d="M102.672 46.1522V47.3647H102.136V44.147H102.672V45.708L104.256 44.147H104.886L103.456 45.5337L105.052 47.3647H104.398L103.102 45.8374L102.672 46.1522Z" fill="white"/>
<path id="Vector_57" d="M108.676 45.7394C108.676 46.0805 108.607 46.3766 108.47 46.6258C108.333 46.875 108.138 47.0681 107.888 47.2049C107.637 47.3417 107.34 47.4091 106.996 47.4091C106.651 47.4091 106.354 47.3417 106.104 47.2086C105.853 47.0756 105.662 46.8826 105.527 46.6333C105.392 46.3841 105.326 46.086 105.326 45.7413C105.326 45.3965 105.392 45.1022 105.525 44.8586C105.658 44.6149 105.85 44.4275 106.1 44.2964C106.351 44.1652 106.651 44.0996 107.001 44.0996C107.35 44.0996 107.649 44.1652 107.899 44.2945C108.149 44.4238 108.341 44.6112 108.477 44.8567C108.609 45.1004 108.676 45.3946 108.676 45.7394ZM108.128 45.7394C108.128 45.3571 108.03 45.0573 107.832 44.838C107.636 44.6187 107.359 44.51 107.001 44.51C106.642 44.51 106.362 44.6169 106.164 44.8324C105.967 45.0479 105.87 45.3496 105.87 45.7375C105.87 45.9943 105.914 46.2173 106.004 46.4047C106.094 46.592 106.224 46.7383 106.394 46.8395C106.561 46.9406 106.763 46.9931 106.998 46.9931C107.362 46.9931 107.641 46.8844 107.837 46.6651C108.03 46.4496 108.128 46.1404 108.128 45.7394Z" fill="white"/>
<path id="Vector_58" d="M112.472 45.7394C112.472 46.0805 112.404 46.3766 112.267 46.6258C112.13 46.875 111.935 47.0681 111.684 47.2049C111.434 47.3417 111.137 47.4091 110.793 47.4091C110.448 47.4091 110.151 47.3417 109.901 47.2086C109.65 47.0756 109.458 46.8826 109.324 46.6333C109.188 46.3841 109.122 46.086 109.122 45.7413C109.122 45.3965 109.188 45.1022 109.321 44.8586C109.455 44.6149 109.646 44.4275 109.897 44.2964C110.147 44.1652 110.448 44.0996 110.798 44.0996C111.147 44.0996 111.446 44.1652 111.696 44.2945C111.946 44.4238 112.138 44.6112 112.273 44.8567C112.406 45.1004 112.472 45.3946 112.472 45.7394ZM111.924 45.7394C111.924 45.3571 111.827 45.0573 111.629 44.838C111.432 44.6187 111.156 44.51 110.798 44.51C110.439 44.51 110.159 44.6169 109.961 44.8324C109.764 45.0479 109.666 45.3496 109.666 45.7375C109.666 45.9943 109.711 46.2173 109.801 46.4047C109.891 46.592 110.02 46.7383 110.19 46.8395C110.358 46.9406 110.56 46.9931 110.794 46.9931C111.158 46.9931 111.437 46.8844 111.633 46.6651C111.827 46.4496 111.924 46.1404 111.924 45.7394Z" fill="white"/>
<path id="Vector_59" d="M113.609 46.0679V47.3647H113.072V44.147H114.684C115.069 44.147 115.368 44.2276 115.578 44.3906C115.787 44.5537 115.892 44.7841 115.892 45.0802C115.892 45.3145 115.823 45.5132 115.682 45.6762C115.541 45.8392 115.347 45.9442 115.101 45.9891L116.039 47.3647H115.425L114.584 46.0679H113.609ZM115.351 45.0915C115.351 44.9153 115.288 44.7804 115.167 44.6904C115.044 44.5986 114.864 44.5537 114.629 44.5537H113.609V45.663H114.647C114.872 45.663 115.046 45.6125 115.167 45.5132C115.29 45.4119 115.351 45.2714 115.351 45.0915Z" fill="white"/>
<path id="Vector_60" d="M119.519 45.7249C119.519 46.066 119.451 46.3584 119.312 46.6038C119.174 46.8493 118.982 47.0368 118.738 47.1679C118.491 47.2991 118.207 47.3647 117.885 47.3647H116.596V44.147H117.74C118.309 44.147 118.747 44.2838 119.056 44.5574C119.365 44.831 119.519 45.2189 119.519 45.7249ZM118.98 45.7249C118.98 45.3445 118.872 45.054 118.659 44.8535C118.446 44.653 118.135 44.5537 117.732 44.5537H117.134V46.958H117.832C118.064 46.958 118.268 46.9074 118.44 46.8081C118.612 46.7088 118.745 46.5645 118.839 46.3808C118.933 46.1953 118.98 45.9779 118.98 45.7249Z" fill="white"/>
<path id="Vector_61" d="M120.691 44.1474V47.3651H120.155V44.1474H120.691ZM120.679 43.3247V43.7444H120.171V43.3247H120.679Z" fill="white"/>
<path id="Vector_62" d="M121.953 45.307V47.3647H121.475V44.147H122.096L123.8 46.8193C123.779 46.5419 123.767 46.3283 123.767 46.1784V44.1488H124.248V47.3666H123.608L121.923 44.7129C121.929 44.8216 121.935 44.9247 121.943 45.024C121.951 45.1196 121.953 45.2152 121.953 45.307Z" fill="white"/>
<path id="Vector_63" d="M125.579 46.4617L125.22 47.3632H124.673L125.993 44.1455H126.615L127.921 47.3632H127.379L127.024 46.4617H125.579ZM126.3 44.5315C126.277 44.6083 126.247 44.6964 126.214 44.7958C126.18 44.8932 126.15 44.9756 126.124 45.0394L125.721 46.0701H126.88L126.471 45.0244C126.449 44.9682 126.421 44.897 126.392 44.8108C126.363 44.7226 126.331 44.629 126.3 44.5315Z" fill="white"/>
<path id="Vector_64" d="M131.013 46.4609C131.013 46.7644 130.892 46.9969 130.649 47.1617C130.407 47.3267 130.059 47.4091 129.609 47.4091C128.782 47.4091 128.301 47.1299 128.168 46.5695L128.688 46.4777C128.737 46.6632 128.839 46.8001 128.995 46.8863C129.15 46.9725 129.36 47.0156 129.63 47.0156C129.908 47.0156 130.121 46.9706 130.268 46.8825C130.414 46.7944 130.489 46.6632 130.489 46.4927C130.489 46.3915 130.464 46.3109 130.411 46.2453C130.36 46.1816 130.286 46.1291 130.19 46.0879C130.111 46.0523 130.016 46.0224 129.898 45.9942C129.783 45.9661 129.648 45.938 129.497 45.9042C129.323 45.8668 129.183 45.8312 129.071 45.7975C128.959 45.7655 128.87 45.73 128.799 45.6943C128.729 45.6588 128.669 45.6213 128.614 45.5819C128.522 45.5125 128.452 45.4263 128.4 45.327C128.349 45.2277 128.326 45.1097 128.326 44.9728C128.326 44.6917 128.438 44.4744 128.661 44.3244C128.883 44.1745 129.202 44.0977 129.621 44.0977C130.014 44.0977 130.313 44.1557 130.518 44.272C130.721 44.3882 130.861 44.5849 130.935 44.8604L130.411 44.941C130.366 44.7817 130.28 44.6636 130.153 44.5887C130.026 44.5137 129.846 44.4762 129.615 44.4762C129.365 44.4762 129.175 44.5156 129.046 44.5924C128.915 44.6693 128.85 44.7873 128.85 44.941C128.85 45.0347 128.876 45.1134 128.929 45.1733C128.98 45.2352 129.056 45.2858 129.153 45.3289C129.247 45.3701 129.445 45.4226 129.746 45.4864C129.885 45.5163 130.014 45.5463 130.137 45.5782C130.261 45.6081 130.37 45.6438 130.468 45.685C130.534 45.7113 130.597 45.7412 130.655 45.7768C130.714 45.8125 130.763 45.8517 130.806 45.8968C130.872 45.9661 130.925 46.0448 130.962 46.1385C130.994 46.2341 131.013 46.3409 131.013 46.4609Z" fill="white"/>
<path id="Vector_65" d="M132.171 44.1474V47.3651H131.636V44.1474H132.171ZM132.16 43.3247V43.7444H131.651V43.3247H132.16Z" fill="white"/>
<path id="Vector_66" d="M134.475 46.036V47.3647H133.94V46.036L132.682 44.147H133.261L134.21 45.6218L135.16 44.147H135.738L134.475 46.036Z" fill="white"/>
<path id="Vector_67" d="M136.398 46.4617L136.04 47.3632H135.493L136.813 44.1455H137.435L138.741 47.3632H138.199L137.843 46.4617H136.398ZM137.12 44.5315C137.096 44.6083 137.067 44.6964 137.034 44.7958C137.001 44.8932 136.969 44.9756 136.944 45.0394L136.541 46.0701H137.701L137.29 45.0244C137.268 44.9682 137.241 44.897 137.211 44.8108C137.182 44.7226 137.151 44.629 137.12 44.5315Z" fill="white"/>
<path id="Vector_68" d="M140.76 45.2845V47.3647H140.282V44.147H140.995L141.791 46.2347C141.82 46.3283 141.849 46.4258 141.878 46.5289C141.908 46.632 141.929 46.7144 141.945 46.7781C141.959 46.7313 141.974 46.6732 141.994 46.6076C142.014 46.5401 142.035 46.4745 142.054 46.4108C142.076 46.3471 142.091 46.2983 142.101 46.2646L142.894 44.147H143.593V47.3647H143.112V45.2845C143.112 45.1908 143.115 45.0821 143.119 44.9622C143.122 44.8422 143.128 44.7185 143.136 44.593C143.089 44.7523 143.048 44.891 143.013 45.009C142.975 45.1289 142.942 45.2264 142.913 45.3051L142.134 47.3647H141.754L140.967 45.3051L140.74 44.593C140.744 44.7279 140.75 44.8535 140.754 44.9678C140.756 45.0821 140.76 45.189 140.76 45.2845Z" fill="white"/>
<path id="Vector_69" d="M146.83 45.4847C146.794 45.1793 146.683 44.9394 146.502 44.767C146.32 44.5945 146.082 44.5083 145.79 44.5083C145.561 44.5083 145.372 44.5552 145.219 44.6489C145.066 44.7426 144.947 44.8776 144.863 45.0537L144.364 44.9094C144.482 44.647 144.66 44.4465 144.9 44.3078C145.139 44.1691 145.436 44.0979 145.792 44.0979C146.138 44.0979 146.433 44.1711 146.678 44.3172C146.907 44.4502 147.08 44.6377 147.202 44.8832C147.323 45.1268 147.384 45.4135 147.384 45.7415C147.384 46.0769 147.319 46.3711 147.191 46.6223C147.061 46.8753 146.877 47.0702 146.635 47.2051C146.394 47.3419 146.111 47.4094 145.786 47.4094C145.458 47.4094 145.172 47.3419 144.931 47.2069C144.691 47.0739 144.505 46.879 144.378 46.6278C144.251 46.3748 144.188 46.0807 144.188 45.7415C144.188 45.704 144.191 45.6627 144.192 45.6196C144.194 45.5765 144.198 45.5316 144.202 45.4847H146.83ZM145.788 47.0139C146.113 47.0139 146.367 46.9184 146.549 46.7253C146.73 46.5323 146.828 46.2587 146.846 45.9045H144.716C144.74 46.2549 144.845 46.5267 145.033 46.7216C145.221 46.9165 145.473 47.0139 145.788 47.0139Z" fill="white"/>
<path id="Vector_70" d="M148.512 46.0679V47.3647H147.977V44.147H149.588C149.974 44.147 150.272 44.2276 150.481 44.3906C150.69 44.5537 150.797 44.7841 150.797 45.0802C150.797 45.3145 150.726 45.5132 150.585 45.6762C150.444 45.8392 150.251 45.9442 150.004 45.9891L150.943 47.3647H150.329L149.488 46.0679H148.512ZM150.255 45.0915C150.255 44.9153 150.192 44.7804 150.071 44.6904C149.948 44.5986 149.768 44.5537 149.533 44.5537H148.512V45.663H149.551C149.776 45.663 149.95 45.6125 150.071 45.5132C150.194 45.4119 150.255 45.2714 150.255 45.0915Z" fill="white"/>
<path id="Vector_71" d="M152.036 46.1522V47.3647H151.5V44.147H152.036V45.708L153.62 44.147H154.25L152.82 45.5337L154.416 47.3647H153.763L152.466 45.8374L152.036 46.1522Z" fill="white"/>
<path id="Vector_72" d="M157.33 45.4847C157.293 45.1793 157.183 44.9394 157.001 44.767C156.82 44.5945 156.581 44.5083 156.29 44.5083C156.061 44.5083 155.871 44.5552 155.719 44.6489C155.566 44.7426 155.447 44.8776 155.362 45.0537L154.864 44.9094C154.982 44.647 155.159 44.4465 155.4 44.3078C155.639 44.1691 155.936 44.0979 156.291 44.0979C156.637 44.0979 156.933 44.1711 157.178 44.3172C157.406 44.4502 157.58 44.6377 157.702 44.8832C157.823 45.1268 157.883 45.4135 157.883 45.7415C157.883 46.0769 157.819 46.3711 157.69 46.6223C157.561 46.8753 157.377 47.0702 157.134 47.2051C156.894 47.3419 156.611 47.4094 156.286 47.4094C155.957 47.4094 155.672 47.3419 155.431 47.2069C155.191 47.0739 155.005 46.879 154.878 46.6278C154.751 46.3748 154.688 46.0807 154.688 45.7415C154.688 45.704 154.69 45.6627 154.691 45.6196C154.694 45.5765 154.698 45.5316 154.702 45.4847H157.33ZM156.286 47.0139C156.611 47.0139 156.864 46.9184 157.047 46.7253C157.228 46.5323 157.326 46.2587 157.344 45.9045H155.216C155.239 46.2549 155.345 46.5267 155.532 46.7216C155.72 46.9165 155.971 47.0139 156.286 47.0139Z" fill="white"/>
<path id="Vector_73" d="M160.932 46.9505V47.3647H158.251V46.988L160.219 44.5611H158.427V44.147H160.825V44.5143L158.857 46.9505H160.932Z" fill="white"/>
<path id="Vector_74" d="M162.026 44.1474V47.3651H161.49V44.1474H162.026ZM162.014 43.3247V43.7444H161.506V43.3247H162.014Z" fill="white"/>
<path id="Vector_75" d="M82.5839 29.6105V32.268H79.9943V29.6105H73.8027V27.6578L79.5503 19.2246H82.5839V27.6746H84.4002V29.6087H82.5839V29.6105ZM76.0145 27.6746H79.9943V23.4075C79.9943 23.0739 80.006 22.7141 80.0275 22.3243C80.049 21.9363 80.0686 21.6853 80.0803 21.5747C79.9962 21.7471 79.8788 21.9589 79.7283 22.2081C79.5777 22.4573 79.392 22.746 79.1729 23.0739L76.0145 27.6746Z" fill="white"/>
<path id="Vector_76" d="M97.324 28.5077C97.324 29.7858 96.829 30.7622 95.8415 31.4368C94.8539 32.1133 93.403 32.4507 91.4903 32.4507C88.044 32.4507 86.0397 31.2569 85.4727 28.8675L88.2263 28.4328C88.4118 29.1243 88.7772 29.6246 89.3175 29.9376C89.8587 30.2487 90.608 30.4042 91.568 30.4042C92.5653 30.4042 93.3131 30.2599 93.8097 29.9694C94.3063 29.679 94.5526 29.2442 94.5526 28.6651C94.5526 28.2941 94.4391 27.9886 94.2139 27.7487C93.9895 27.5088 93.6663 27.3083 93.2483 27.1472C93.0409 27.0666 92.7395 26.9785 92.3409 26.8829C91.9415 26.7873 91.4449 26.6805 90.8527 26.5643C90.1698 26.4107 89.6359 26.2794 89.2487 26.1708C88.8614 26.0621 88.5544 25.9571 88.3219 25.8559C88.091 25.7547 87.8641 25.6423 87.6454 25.5186C87.1626 25.2413 86.7851 24.8702 86.5153 24.4073C86.2447 23.9444 86.1102 23.3672 86.1102 22.6757C86.1102 21.4969 86.572 20.5955 87.4964 19.9677C88.4215 19.3418 89.7655 19.0288 91.5292 19.0288C93.2167 19.0288 94.4837 19.2818 95.3311 19.7878C96.1777 20.2938 96.7229 21.1296 96.9675 22.2971L94.2042 22.6588C94.0616 22.0966 93.774 21.6749 93.3398 21.3901C92.9056 21.1052 92.2818 20.9647 91.4708 20.9647C90.608 20.9647 89.9608 21.094 89.5282 21.3545C89.0964 21.6131 88.8809 22.0029 88.8809 22.5201C88.8809 22.8593 88.9732 23.1367 89.1571 23.3541C89.341 23.5696 89.6124 23.7552 89.9721 23.9088C90.3124 24.0569 91.0439 24.2442 92.1643 24.4729C92.814 24.6097 93.3754 24.7371 93.8445 24.8571C94.3136 24.977 94.6911 25.0932 94.9746 25.2038C95.2582 25.3219 95.5109 25.4436 95.7337 25.5748C95.9565 25.7042 96.1461 25.8428 96.3089 25.9909C96.637 26.2926 96.8873 26.6524 97.0615 27.0684C97.2357 27.4845 97.324 27.9643 97.324 28.5077Z" fill="white"/>
<path id="Vector_77" d="M102.266 19.2231V32.2646H99.417V19.2231H102.266ZM102.219 16.0298V17.9451H99.5053V16.0298H102.219Z" fill="white"/>
<path id="Vector_78" d="M107.841 24.3613V32.2659H105.311V19.2245H109.126L111.561 26.5183C111.671 26.9249 111.784 27.3353 111.899 27.7458C112.015 28.1562 112.129 28.5647 112.238 28.9714C112.308 28.7371 112.376 28.5048 112.441 28.2723C112.505 28.04 112.573 27.8076 112.639 27.5734C112.707 27.3391 112.776 27.1067 112.846 26.8781L115.347 19.2227H119.143V32.2641H116.613V24.3613C116.613 24.1832 116.62 23.8234 116.636 23.2837C116.652 22.744 116.677 22.1555 116.708 21.5203C116.483 22.3467 116.284 23.0513 116.114 23.6304C115.943 24.2113 115.802 24.6648 115.693 24.9909L113.239 32.2659H111.211L108.757 24.9909L107.722 21.5203C107.761 22.2361 107.79 22.8301 107.811 23.3025C107.83 23.7747 107.841 24.127 107.841 24.3613Z" fill="white"/>
</g>
</g>
</g>
</g>
<defs>
<clipPath id="clip0_4654_4346">
<rect width="162.025" height="64" fill="white"/>
</clipPath>
</defs>
</svg>
